<svg width="157" height="158" viewBox="0 0 157 158" fill="none" xmlns="http://www.w3.org/2000/svg">
<path d="M75.0599 134.852V157.112H72.1799V134.852H75.0599Z" fill="#15BFCE"/>
<path d="M55.1391 131.654L49.701 146.595L46.9947 145.61L52.4328 130.669L55.1391 131.654ZM47.3013 148.978C47.8275 149.17 48.2076 149.5 48.4415 149.968C48.6567 150.429 48.6754 150.904 48.4975 151.393C48.3128 151.9 47.9898 152.262 47.5283 152.477C47.0481 152.685 46.5449 152.694 46.0187 152.502C45.4925 152.31 45.1218 151.984 44.9066 151.523C44.6658 151.073 44.6343 150.604 44.8122 150.115C44.9969 149.608 45.3234 149.237 45.7916 149.003C46.253 148.788 46.7562 148.78 47.3013 148.978Z" fill="#15BFCE"/>
<path d="M36.903 121.715L32.0143 138.369L29.7162 136.44L34.2382 121.437L35.3413 122.363L21.259 129.344L19.0988 127.531L34.6508 119.825L36.903 121.715Z" fill="#15BFCE"/>
<path d="M22.1034 103.948C22.9534 105.42 23.4003 106.894 23.4441 108.37C23.4778 109.828 23.1465 111.174 22.4499 112.408C21.7434 113.624 20.7059 114.627 19.3376 115.417C17.9693 116.207 16.5868 116.613 15.1903 116.634C13.7837 116.638 12.486 116.29 11.2971 115.591C10.0809 114.884 9.09279 113.873 8.33279 112.556C7.56279 111.223 7.17724 109.875 7.17614 108.513C7.17504 107.151 7.54642 105.874 8.29029 104.683C9.00684 103.484 10.0753 102.474 11.4955 101.654C11.5995 101.594 11.7257 101.533 11.8743 101.47C12.0128 101.39 12.1477 101.324 12.279 101.271L19.044 112.989L17.2513 114.024L11.2363 103.605L12.4448 104.258C11.5515 104.751 10.8684 105.388 10.3956 106.169C9.92278 106.95 9.69084 107.788 9.69979 108.684C9.68142 109.572 9.92724 110.458 10.4372 111.341C10.9372 112.207 11.5814 112.863 12.3698 113.308C13.1408 113.764 13.9914 113.977 14.9216 113.948C15.8344 113.929 16.7411 113.66 17.6418 113.14L18.0575 112.9C18.9755 112.37 19.6782 111.687 20.1657 110.851C20.6258 110.008 20.8351 109.091 20.7934 108.099C20.7518 107.107 20.446 106.117 19.876 105.13C19.406 104.316 18.8424 103.659 18.1853 103.161C17.5182 102.646 16.7625 102.297 15.9182 102.115L16.734 99.8076C17.8215 100.011 18.8258 100.471 19.7468 101.186C20.6579 101.884 21.4434 102.804 22.1034 103.948Z" fill="#15BFCE"/>
<path d="M9.92066 63.2814C9.8373 63.7541 9.65083 64.1781 9.36124 64.5535C9.05196 64.9255 8.66793 65.203 8.20916 65.3861C7.75387 65.5496 7.26032 65.5844 6.72853 65.4906C6.21643 65.4003 5.78425 65.2023 5.432 64.8965C5.06353 64.5675 4.79759 64.1753 4.63417 63.72C4.47074 63.2647 4.43071 62.8007 4.51406 62.328C4.60089 61.8356 4.7972 61.4133 5.10302 61.0611C5.4123 60.6891 5.79459 60.4214 6.24989 60.258C6.68549 60.0911 7.15934 60.0528 7.67144 60.1431C8.20323 60.2369 8.6551 60.4384 9.02705 60.7477C9.39899 61.057 9.66667 61.4393 9.83009 61.8946C9.97729 62.3267 10.0075 62.789 9.92066 63.2814Z" fill="#15BFCE"/>
<path d="M34.6527 30.0259L24.4323 17.8458L26.6385 15.9946L36.8589 28.1747L34.6527 30.0259ZM23.5685 14.5761C23.1395 14.936 22.6638 15.1003 22.1413 15.0687C21.6341 15.0244 21.2134 14.803 20.8791 14.4047C20.532 13.991 20.3807 13.5306 20.425 13.0234C20.4847 12.5034 20.7291 12.0634 21.158 11.7034C21.587 11.3434 22.0551 11.1856 22.5623 11.23C23.0719 11.2462 23.4939 11.4535 23.8281 11.8518C24.1752 12.2655 24.333 12.7336 24.3015 13.2561C24.2571 13.7633 24.0128 14.2033 23.5685 14.5761Z" fill="#15BFCE"/>
<path d="M53.9058 18.8381C52.6654 19.2896 51.4198 19.5514 50.1691 19.6235C48.9371 19.6888 47.9127 19.5934 47.0959 19.3374L47.4437 16.7845C48.24 16.9841 49.1627 17.0633 50.2119 17.022C51.261 16.9807 52.2742 16.7822 53.2515 16.4265C54.5107 15.9682 55.3478 15.4613 55.7629 14.9058C56.1967 14.3435 56.2974 13.7429 56.0648 13.1039C55.8938 12.6341 55.5912 12.3291 55.1572 12.1892C54.7231 12.0492 54.2003 12.016 53.5886 12.0897C52.9956 12.1565 52.3438 12.266 51.633 12.4183C50.9154 12.5518 50.1909 12.6665 49.4596 12.7624C48.7215 12.8395 48.0192 12.8397 47.3528 12.763C46.6795 12.6675 46.0814 12.4276 45.5584 12.0433C45.0286 11.6402 44.6064 11.0064 44.2917 10.1419C43.9634 9.23979 43.9298 8.35811 44.191 7.49684C44.4522 6.63557 44.9782 5.8588 45.7691 5.16654C46.572 4.44864 47.6125 3.85712 48.8904 3.39197C49.8677 3.03627 50.8989 2.79931 51.9839 2.68109C53.0808 2.53723 54.0274 2.56515 54.8238 2.76483L54.4478 5.32802C53.607 5.12322 52.7894 5.06963 51.9948 5.16726C51.2003 5.2649 50.4366 5.4471 49.7036 5.71388C48.5196 6.14482 47.7081 6.66366 47.2692 7.27038C46.8234 7.85831 46.7099 8.45297 46.9288 9.05438C47.1135 9.56181 47.4263 9.89492 47.8672 10.0537C48.32 10.1868 48.8463 10.2294 49.4461 10.1814C50.0646 10.1265 50.7327 10.0323 51.4503 9.89886C52.1611 9.74657 52.8855 9.63188 53.6237 9.55477C54.355 9.45886 55.0445 9.45268 55.6921 9.53621C56.3585 9.61291 56.9532 9.84341 57.4762 10.2277C58.018 10.6052 58.4428 11.2168 58.7506 12.0625C59.0789 12.9646 59.0997 13.8403 58.8129 14.6896C58.526 15.539 57.9718 16.326 57.1501 17.0507C56.3216 17.7567 55.2402 18.3525 53.9058 18.8381Z" fill="#15BFCE"/>
<path d="M96.8689 13.6126C96.4178 13.4484 96.0326 13.1911 95.7132 12.8407C95.4006 12.4715 95.194 12.0452 95.0933 11.5616C95.0114 11.0848 95.0628 10.5927 95.2475 10.0853C95.4254 9.59664 95.6954 9.20543 96.0578 8.91163C96.4457 8.60589 96.8781 8.41208 97.3549 8.3302C97.8316 8.24832 98.2955 8.28947 98.7466 8.45364C99.2164 8.62465 99.5982 8.89132 99.892 9.25365C100.205 9.62283 100.402 10.0458 100.484 10.5225C100.572 10.9805 100.528 11.4538 100.35 11.9425C100.165 12.4499 99.8884 12.8599 99.5192 13.1725C99.1501 13.4851 98.7271 13.6823 98.2503 13.7642C97.7992 13.8341 97.3387 13.7836 96.8689 13.6126Z" fill="#15BFCE"/>
<path d="M126.596 46.3073C125.786 44.9044 125.364 43.4736 125.33 42.0151C125.307 40.5739 125.643 39.2366 126.339 38.003C127.036 36.7695 128.068 35.7577 129.437 34.9677C130.805 34.1777 132.197 33.7895 133.614 33.803C135.031 33.8166 136.348 34.1989 137.567 34.9501C138.813 35.7086 139.842 36.7894 140.652 38.1923C141.372 39.4394 141.76 40.6929 141.818 41.9529C141.903 43.2201 141.616 44.4023 140.956 45.4992L138.64 44.3076C139.055 43.4673 139.229 42.628 139.161 41.7898C139.12 40.959 138.884 40.1711 138.454 39.4264C137.934 38.5257 137.27 37.8353 136.462 37.3552C135.653 36.875 134.765 36.6371 133.798 36.6414C132.848 36.6357 131.879 36.9179 130.892 37.4879C129.904 38.0579 129.167 38.7607 128.68 39.5964C128.192 40.4321 127.954 41.32 127.966 42.2602C127.978 43.2003 128.243 44.1207 128.763 45.0214C129.193 45.7661 129.749 46.369 130.431 46.8298C131.14 47.298 131.962 47.5623 132.898 47.6226L132.798 50.2092C131.535 50.2223 130.359 49.8851 129.269 49.1979C128.207 48.5179 127.316 47.5544 126.596 46.3073Z" fill="#15BFCE"/>
<path d="M132.988 64.5848C132.71 63.0091 132.808 61.5499 133.282 60.2072C133.757 58.8644 134.532 57.7326 135.608 56.8117C136.704 55.8873 138.021 55.2897 139.557 55.0188C141.113 54.7444 142.554 54.8559 143.881 55.3531C145.207 55.8503 146.313 56.6504 147.198 57.7535C148.103 58.8531 148.694 60.1908 148.972 61.7665C149.246 63.3225 149.146 64.7718 148.672 66.1145C148.221 67.4735 147.456 68.6035 146.376 69.5048C145.319 70.4222 144.003 71.0198 142.427 71.2977C140.871 71.572 139.43 71.4606 138.104 70.9634C136.781 70.4859 135.665 69.6875 134.757 68.5682C133.852 67.4686 133.263 66.1408 132.988 64.5848ZM135.47 64.1472C135.647 65.1517 136.032 66.0079 136.623 66.7159C137.219 67.4436 137.97 67.961 138.877 68.2681C139.804 68.5718 140.819 68.6264 141.922 68.4319C143.045 68.2339 143.97 67.8372 144.697 67.2418C145.445 66.643 145.974 65.8998 146.284 65.0124C146.599 64.1447 146.667 63.2086 146.49 62.2041C146.313 61.1996 145.928 60.3433 145.336 59.6353C144.744 58.9274 143.993 58.41 143.083 58.0831C142.192 57.7528 141.185 57.6866 140.062 57.8846C138.959 58.0791 138.026 58.4873 137.262 59.1094C136.518 59.728 135.989 60.4711 135.675 61.3388C135.361 62.2066 135.293 63.1427 135.47 64.1472Z" fill="#15BFCE"/>
<path d="M133.093 84.6769C133.36 83.1603 133.935 81.8603 134.816 80.7769C135.694 79.7132 136.795 78.9426 138.118 78.4651C139.441 77.9876 140.9 77.8895 142.495 78.1708C144.091 78.4521 145.419 79.0417 146.479 79.9394C147.559 80.8406 148.329 81.9411 148.791 83.241C149.248 84.5605 149.344 85.9786 149.076 87.4952C148.843 88.8149 148.338 89.9544 147.559 90.9138C146.781 91.8732 145.745 92.5638 144.452 92.9857C143.156 93.4273 141.622 93.4919 139.849 93.1793C138.076 92.8667 136.655 92.2911 135.584 91.4525C134.51 90.6335 133.761 89.6384 133.338 88.4671C132.935 87.2994 132.853 86.0359 133.093 84.6769ZM135.533 85.3509C135.359 86.3357 135.429 87.2619 135.743 88.1297C136.054 89.0171 136.583 89.7602 137.33 90.3591C138.094 90.9812 139.027 91.3894 140.13 91.5839C141.253 91.7819 142.26 91.7157 143.151 91.3854C144.058 91.0782 144.809 90.5608 145.404 89.8331C145.996 89.1252 146.379 88.2788 146.553 87.294C146.73 86.2895 146.661 85.3534 146.347 84.4856C146.033 83.6179 145.504 82.8748 144.76 82.2562C144.036 81.6411 143.113 81.2346 141.99 81.0366C140.887 80.8421 139.87 80.9066 138.94 81.2299C138.03 81.5568 137.278 82.0742 136.686 82.7822C136.094 83.4901 135.71 84.3464 135.533 85.3509ZM132.285 90.292L136.51 91.037L140.113 91.855L143.799 92.2003L154.228 94.0393L153.728 96.8755L131.806 93.0101L132.285 90.292Z" fill="#15BFCE"/>
<path d="M125.432 105.562C126.282 104.09 127.335 102.966 128.591 102.19C129.837 101.432 131.169 101.045 132.585 101.032C133.992 101.036 135.379 101.433 136.748 102.223C138.116 103.013 139.158 104.007 139.875 105.206C140.582 106.422 140.929 107.72 140.918 109.099C140.914 110.506 140.533 111.867 139.773 113.184C139.003 114.517 138.028 115.525 136.849 116.207C135.67 116.889 134.379 117.206 132.975 117.157C131.578 117.136 130.17 116.715 128.75 115.895C128.646 115.835 128.53 115.757 128.401 115.659C128.262 115.579 128.138 115.496 128.026 115.408L134.791 103.691L136.584 104.726L130.569 115.144L130.53 113.771C131.404 114.299 132.297 114.572 133.21 114.591C134.123 114.61 134.964 114.391 135.736 113.936C136.514 113.508 137.158 112.852 137.668 111.969C138.168 111.102 138.414 110.217 138.406 109.311C138.414 108.416 138.174 107.572 137.684 106.781C137.211 106 136.524 105.35 135.624 104.83L135.208 104.59C134.29 104.06 133.347 103.793 132.38 103.788C131.42 103.811 130.52 104.089 129.682 104.621C128.844 105.153 128.139 105.913 127.569 106.9C127.099 107.714 126.813 108.53 126.71 109.348C126.597 110.184 126.673 111.013 126.937 111.835L124.531 112.282C124.164 111.239 124.06 110.139 124.219 108.984C124.367 107.846 124.772 106.705 125.432 105.562Z" fill="#15BFCE"/>
<path d="M96.3066 136.444C96.7576 136.28 97.2181 136.23 97.688 136.293C98.1648 136.375 98.5971 136.569 98.9851 136.874C99.3543 137.187 99.6312 137.597 99.8159 138.104C99.9938 138.593 100.038 139.066 99.9496 139.524C99.8489 140.008 99.6423 140.434 99.3297 140.803C99.0171 141.173 98.6353 141.439 98.1843 141.603C97.7144 141.774 97.2505 141.816 96.7925 141.727C96.3158 141.645 95.8928 141.448 95.5237 141.135C95.1613 140.841 94.8912 140.45 94.7134 139.961C94.5287 139.454 94.4773 138.962 94.5592 138.485C94.641 138.008 94.8383 137.585 95.1509 137.216C95.4515 136.873 95.8367 136.615 96.3066 136.444Z" fill="#15BFCE"/>
</svg>
