<svg width="150" height="80" viewBox="0 0 150 80" fill="none" xmlns="http://www.w3.org/2000/svg">
<path d="M21.7617 54.8014C9.75855 54.8014 0 45.1523 0 33.2874C0 21.4225 9.76233 11.774 21.7617 11.774C26.6823 11.774 31.3253 13.3583 35.1902 16.3556C35.8993 16.9058 36.3602 17.7143 36.4714 18.6033C36.5827 19.4923 36.335 20.389 35.7832 21.096C35.2314 21.803 34.4205 22.2626 33.5289 22.3735C32.6373 22.4843 31.738 22.2375 31.0289 21.6873C28.3837 19.6271 25.1198 18.5147 21.7632 18.5292C13.4998 18.5292 6.77728 25.1497 6.77728 33.2874C6.77728 41.4248 13.4998 48.0463 21.7632 48.0463C25.3833 48.0499 28.8837 46.7558 31.6262 44.3997C32.3096 43.8436 33.1837 43.5756 34.0625 43.6519C34.9414 43.7285 35.7555 44.1439 36.332 44.8097C36.9086 45.4754 37.2018 46.3393 37.1495 47.2174C37.0973 48.0952 36.7036 48.9185 36.0523 49.5115C32.0796 52.9272 27.0076 54.8048 21.7617 54.8014Z" fill="white"/>
<path d="M139.411 12.693L120.723 23.4142L102.034 12.693C97.2271 9.93507 91.4453 13.7207 91.4453 19.6255V51.1531C91.4453 53.1472 92.9337 54.7636 94.7696 54.7636C96.6053 54.7636 98.0928 53.1472 98.0928 51.1531V18.5977L117.335 29.6368V51.5166C117.335 53.3118 118.852 54.7636 120.723 54.7636C122.594 54.7636 124.111 53.3095 124.111 51.5166V29.6368L143.352 18.5977V51.1531C143.352 53.1472 144.84 54.7636 146.676 54.7636C148.511 54.7636 150 53.1472 150 51.1531V19.6255C150 13.7207 144.218 9.93507 139.411 12.693Z" fill="white"/>
<path d="M74.4955 29.2039C74.8871 30.5593 75.0812 31.9636 75.0723 33.374C75.0251 41.5175 68.2756 48.0461 60.1083 48.0461H49.3414C47.5446 48.0461 45.8214 48.7578 44.5507 50.0248C43.2803 51.2915 42.5664 53.0099 42.5664 54.8014H60.0843C71.9465 54.8014 81.84 45.126 81.8475 33.2985C81.8516 30.6733 81.3712 28.0698 80.4303 25.6181L74.4955 29.2039Z" fill="white"/>
<path d="M118.118 0C118.118 0 85.4262 12.4423 83.2837 13.4349C82.1953 13.9383 78.8172 16.2078 75.754 18.3201C73.7463 16.2483 71.3409 14.601 68.6809 13.4764C66.0207 12.3518 63.1607 11.7729 60.2714 11.7743H42.5667C42.5667 13.5659 43.2806 15.2841 44.5512 16.551C45.8217 17.8178 47.5451 18.5295 49.3419 18.5295H60.2737C63.9025 18.5264 67.405 19.8581 70.1104 22.2696L40.5645 42.518C40.5645 42.518 85.6199 17.0328 86.806 16.3379C91.4753 13.5875 118.118 0 118.118 0Z" fill="white"/>
<path d="M16.7299 60.8646C16.7471 60.5772 16.8994 60.4335 17.1883 60.4335H17.7599C18.048 60.4335 18.192 60.5688 18.192 60.8392V78.866C18.1755 79.1452 18.0187 79.2845 17.7217 79.2841H17.1215C17.0405 79.2854 16.9602 79.2677 16.8873 79.2326C16.8143 79.1973 16.7506 79.1456 16.7014 79.0815L3.88126 62.8818V78.8256C3.88126 79.1297 3.72447 79.2818 3.41088 79.2818H2.87675C2.57116 79.2818 2.41839 79.1297 2.41839 78.8256V60.9026C2.41591 60.8113 2.42448 60.7198 2.44389 60.6305C2.45434 60.5974 2.47336 60.5675 2.49904 60.5441C2.52475 60.5208 2.55618 60.5047 2.59018 60.4972C2.71077 60.4666 2.83481 60.4515 2.95927 60.4524C3.12481 60.449 3.35163 60.4469 3.6397 60.4465C3.68713 60.4469 3.73372 60.4587 3.77572 60.4807C3.81772 60.5027 3.85388 60.5342 3.88126 60.5727C4.88153 61.8335 5.9248 63.1442 7.01109 64.505C8.09737 65.866 9.19341 67.2372 10.2992 68.619C11.4065 70.0013 12.5048 71.3728 13.5941 72.7331C14.6834 74.0934 15.7286 75.4041 16.7299 76.6654V60.8646Z" fill="white"/>
<path d="M50.3004 60.4338C50.6219 60.4338 50.7831 60.5931 50.7835 60.9117V61.541C50.7892 61.6674 50.746 61.7914 50.6629 61.8872C50.6133 61.9346 50.5542 61.9709 50.4895 61.9935C50.4249 62.0164 50.356 62.0252 50.2876 62.0196H39.1847V68.6401H48.1122C48.2376 68.6345 48.3613 68.6725 48.4617 68.748C48.5513 68.8207 48.5958 68.9413 48.5951 69.1099V69.7568C48.6013 69.8212 48.5929 69.886 48.5706 69.9465C48.5483 70.007 48.5126 70.0619 48.4663 70.1067C48.4199 70.1518 48.364 70.1858 48.3026 70.2064C48.2415 70.227 48.1763 70.2336 48.1122 70.2259H39.1847V77.6969H50.4558C50.7774 77.6969 50.9383 77.8533 50.9388 78.166V78.8256C50.9388 79.13 50.7819 79.282 50.4685 79.282H37.9957C37.9425 79.2841 37.8893 79.2755 37.8393 79.2571C37.7895 79.2385 37.7436 79.2104 37.7045 79.1744C37.6638 79.1288 37.6327 79.0758 37.6134 79.018C37.5938 78.9602 37.5863 78.8993 37.5913 78.8386V60.9029C37.5913 60.7338 37.6334 60.6133 37.7175 60.5416C37.8141 60.4655 37.935 60.4272 38.0579 60.4338H50.3004Z" fill="white"/>
<path d="M74.7893 68.6521L79.9656 61.0166C80.1261 60.7803 80.2711 60.6275 80.3977 60.5602C80.5568 60.4857 80.7316 60.4505 80.9072 60.4585H81.3902C81.6784 60.4585 81.8231 60.5176 81.8231 60.6359C81.8231 60.7293 81.7422 60.8938 81.5809 61.131L75.6145 69.8699L81.6575 78.7615C81.7356 78.8651 81.784 78.9879 81.7977 79.1168C81.7977 79.2349 81.6993 79.294 81.5052 79.294H80.8434C80.7002 79.2979 80.5588 79.2634 80.4334 79.1943C80.3081 79.1252 80.2036 79.0241 80.1307 78.9013L74.7877 71.075L69.448 78.9013C69.2609 79.163 69.0232 79.294 68.7353 79.294H68.0744C67.8703 79.294 67.7689 79.2349 67.7689 79.1168C67.7689 79.0323 67.8191 78.914 67.9189 78.7615L73.9618 69.8699L67.9955 61.131C67.8339 60.911 67.7535 60.746 67.7539 60.6359C67.7539 60.5176 67.898 60.4585 68.1862 60.4585H68.67C68.8453 60.4508 69.0198 60.4857 69.1787 60.5602C69.3053 60.6275 69.4503 60.7803 69.6114 61.0166L74.7893 68.6521Z" fill="white"/>
<path d="M101.248 71.7265C101.242 72.5872 101.399 73.441 101.713 74.2428C102.004 74.9999 102.445 75.6905 103.009 76.2741C103.574 76.8578 104.25 77.3221 104.998 77.6396C105.797 77.9793 106.658 78.1497 107.527 78.1399C108.405 78.1508 109.277 77.9804 110.086 77.6396C110.834 77.3221 111.51 76.8564 112.073 76.2707C112.63 75.6824 113.067 74.9912 113.359 74.236C113.668 73.4358 113.824 72.5845 113.817 71.7265V60.8895C113.814 60.8288 113.824 60.7683 113.846 60.7116C113.868 60.6552 113.902 60.6035 113.944 60.5602C113.992 60.5163 114.048 60.4823 114.109 60.4603C114.171 60.4386 114.236 60.4293 114.301 60.4331H114.784C114.914 60.4281 115.04 60.471 115.14 60.5537C115.187 60.5956 115.224 60.6477 115.248 60.7057C115.272 60.764 115.283 60.8267 115.28 60.8895V71.9248C115.283 72.9788 115.071 74.0223 114.656 74.9915C114.268 75.8999 113.704 76.7232 112.996 77.4143C112.289 78.1003 111.456 78.643 110.541 79.0128C109.586 79.4008 108.564 79.5968 107.532 79.5895C106.836 79.5918 106.143 79.5003 105.472 79.3172C104.823 79.1406 104.2 78.8782 103.621 78.5372C103.05 78.2002 102.525 77.7935 102.056 77.326C101.588 76.8596 101.182 76.3352 100.847 75.7658C100.509 75.1863 100.246 74.5664 100.065 73.9205C99.877 73.2514 99.7829 72.5598 99.7852 71.865V60.8895C99.7845 60.7737 99.8245 60.6615 99.8984 60.5723C99.9386 60.5253 99.9893 60.4882 100.046 60.4642C100.103 60.4399 100.165 60.4293 100.227 60.4331H100.781C100.901 60.434 101.016 60.4793 101.103 60.5602C101.151 60.6008 101.188 60.6516 101.213 60.7084C101.238 60.7653 101.25 60.8272 101.248 60.8895V71.7265Z" fill="white"/>
<path d="M133.728 75.8956C133.898 75.7266 134.038 75.5953 134.148 75.5022C134.266 75.4061 134.414 75.3558 134.566 75.3608C134.655 75.359 134.741 75.3905 134.808 75.4492C134.869 75.502 134.925 75.5618 134.973 75.6271C135.326 76.0211 135.721 76.3762 136.15 76.6862C136.575 76.9931 137.031 77.2546 137.511 77.4664C137.983 77.6754 138.476 77.8367 138.98 77.9482C139.469 78.0568 139.968 78.1118 140.468 78.1127C141.156 78.113 141.841 78.0364 142.511 77.8845C143.152 77.7461 143.765 77.4995 144.323 77.1553C144.848 76.8306 145.293 76.3903 145.621 75.868C145.951 75.3438 146.117 74.7095 146.118 73.9651C146.125 73.5686 146.04 73.1759 145.869 72.8176C145.703 72.4834 145.472 72.1856 145.189 71.9424C144.884 71.6825 144.546 71.465 144.183 71.2955C143.79 71.1092 143.384 70.9501 142.969 70.8196C142.54 70.6846 142.101 70.5642 141.652 70.4584C141.203 70.3528 140.766 70.2529 140.342 70.1593C139.406 69.9569 138.486 69.69 137.588 69.3603C136.803 69.0641 136.153 68.7215 135.637 68.3326C135.154 67.9834 134.758 67.5277 134.48 67.0011C134.216 66.4647 134.085 65.8732 134.098 65.2764C134.086 64.548 134.246 63.827 134.562 63.1707C134.872 62.5439 135.322 61.9969 135.879 61.5722C136.496 61.1079 137.195 60.7639 137.94 60.5579C138.817 60.3112 139.725 60.1915 140.636 60.2026C141.713 60.1956 142.781 60.3869 143.787 60.7664C144.783 61.148 145.686 61.734 146.439 62.4871C146.549 62.5972 146.632 62.684 146.688 62.7472C146.738 62.8002 146.768 62.87 146.77 62.9432C146.758 63.0343 146.713 63.1179 146.643 63.1782C146.559 63.2668 146.432 63.3914 146.262 63.5521C146.186 63.6201 146.122 63.6747 146.071 63.7173C146.03 63.7551 145.977 63.7778 145.921 63.781C145.81 63.781 145.662 63.7005 145.476 63.5394C145.179 63.2856 144.867 63.0447 144.54 62.8168C144.202 62.5813 143.842 62.3776 143.465 62.2079C143.051 62.0218 142.618 61.8795 142.174 61.783C141.658 61.6726 141.131 61.6196 140.603 61.6246C139.772 61.6246 139.047 61.7195 138.428 61.9094C137.866 62.0705 137.34 62.3352 136.876 62.6896C136.486 62.9899 136.169 63.3765 135.953 63.8188C135.737 64.2612 135.626 64.7475 135.63 65.2396C135.623 65.5866 135.692 65.9306 135.833 66.2478C135.971 66.5429 136.163 66.8096 136.399 67.0341C136.653 67.2759 136.94 67.481 137.252 67.643C137.593 67.8227 137.945 67.9798 138.307 68.1126C138.685 68.2517 139.081 68.3766 139.497 68.4867C139.913 68.5968 140.328 68.6983 140.743 68.791C141.235 68.9093 141.746 69.036 142.276 69.171C142.807 69.3063 143.326 69.4647 143.835 69.6469C144.331 69.8234 144.813 70.0353 145.279 70.2812C145.718 70.5114 146.12 70.8042 146.475 71.1502C146.84 71.5053 147.128 71.9323 147.32 72.4038C147.511 72.8754 147.603 73.3816 147.588 73.8904C147.588 74.8197 147.401 75.6357 147.028 76.3377C146.66 77.0336 146.138 77.6368 145.502 78.1016C144.817 78.5938 144.047 78.9568 143.231 79.1726C142.325 79.4189 141.389 79.5408 140.451 79.5347C139.815 79.5354 139.181 79.478 138.556 79.3634C137.944 79.2514 137.349 79.0683 136.781 78.8181C136.212 78.5657 135.676 78.2462 135.184 77.8666C134.67 77.4678 134.208 77.0053 133.811 76.4902C133.758 76.4318 133.711 76.3681 133.67 76.3003C133.636 76.2382 133.618 76.168 133.619 76.0968C133.622 76.0576 133.633 76.0193 133.652 75.9847C133.671 75.95 133.697 75.9196 133.728 75.8956Z" fill="white"/>
</svg>
