<svg width="83" height="44" viewBox="0 0 83 44" fill="none" xmlns="http://www.w3.org/2000/svg">
<path d="M11.9185 30.0135C5.34457 30.0135 0 24.7289 0 18.2307C0 11.7325 5.34663 6.44824 11.9185 6.44824C14.6134 6.44824 17.1562 7.31592 19.273 8.95746C19.6614 9.25879 19.9138 9.70163 19.9747 10.1885C20.0356 10.6754 19.9 11.1665 19.5978 11.5537C19.2955 11.9409 18.8514 12.1926 18.3631 12.2533C17.8748 12.3141 17.3823 12.1789 16.9939 11.8776C15.5452 10.7492 13.7576 10.14 11.9193 10.1479C7.39358 10.1479 3.71178 13.7738 3.71178 18.2307C3.71178 22.6874 7.39358 26.3139 11.9193 26.3139C13.9019 26.3158 15.819 25.6071 17.321 24.3167C17.6953 24.0121 18.174 23.8653 18.6554 23.9072C19.1367 23.9491 19.5826 24.1766 19.8983 24.5412C20.2141 24.9058 20.3747 25.379 20.3461 25.8599C20.3174 26.3407 20.1019 26.7915 19.7451 27.1163C17.5694 28.987 14.7915 30.0154 11.9185 30.0135Z" fill="white" fill-opacity="0.5"/>
<path d="M76.3517 6.95121L66.1166 12.823L55.8814 6.95121C53.2486 5.44077 50.082 7.51409 50.082 10.748V28.0151C50.082 29.1072 50.8972 29.9925 51.9027 29.9925C52.908 29.9925 53.7227 29.1072 53.7227 28.0151V10.1851L64.2611 16.231V28.2141C64.2611 29.1973 65.0919 29.9925 66.1166 29.9925C67.1413 29.9925 67.9721 29.1961 67.9721 28.2141V16.231L78.5105 10.1851V28.0151C78.5105 29.1072 79.3252 29.9925 80.3306 29.9925C81.336 29.9925 82.1511 29.1072 82.1511 28.0151V10.748C82.1511 7.51409 78.9846 5.44077 76.3517 6.95121Z" fill="white" fill-opacity="0.5"/>
<path d="M40.7995 15.9942C41.0139 16.7364 41.1202 17.5055 41.1154 18.278C41.0895 22.7381 37.3929 26.3136 32.9199 26.3136H27.023C26.0389 26.3136 25.0952 26.7034 24.3993 27.3973C23.7035 28.0911 23.3125 29.0322 23.3125 30.0134H32.9067C39.4034 30.0134 44.8219 24.7144 44.826 18.2367C44.8282 16.7989 44.5651 15.373 44.0498 14.0303L40.7995 15.9942Z" fill="white" fill-opacity="0.5"/>
<path d="M64.6911 0C64.6911 0 46.7867 6.8144 45.6133 7.35804C45.0172 7.63374 43.1671 8.87667 41.4894 10.0336C40.3898 8.8989 39.0724 7.9967 37.6156 7.38076C36.1587 6.76482 34.5923 6.44779 33.0099 6.44857H23.3134C23.3134 7.42979 23.7044 8.37082 24.4003 9.06466C25.0961 9.75848 26.04 10.1483 27.024 10.1483H33.0111C34.9986 10.1466 36.9168 10.8759 38.3985 12.1966L22.2168 23.2863C22.2168 23.2863 46.8928 9.32854 47.5424 8.94795C50.0997 7.44161 64.6911 0 64.6911 0Z" fill="white" fill-opacity="0.5"/>
<path d="M9.16258 33.3347C9.17202 33.1773 9.25543 33.0986 9.41362 33.0986H9.7267C9.88448 33.0986 9.96336 33.1727 9.96336 33.3208V43.1937C9.95432 43.3466 9.86845 43.4229 9.70575 43.4227H9.37706C9.33267 43.4234 9.28873 43.4138 9.24877 43.3945C9.20881 43.3752 9.17394 43.3469 9.14697 43.3117L2.12564 34.4395V43.1716C2.12564 43.3382 2.03976 43.4214 1.86802 43.4214H1.57548C1.40812 43.4214 1.32445 43.3382 1.32445 43.1716V33.3555C1.32309 33.3055 1.32778 33.2554 1.33841 33.2065C1.34414 33.1884 1.35456 33.172 1.36862 33.1592C1.3827 33.1464 1.39991 33.1376 1.41854 33.1335C1.48458 33.1168 1.55252 33.1084 1.62068 33.1089C1.71134 33.1071 1.83557 33.106 1.99334 33.1057C2.01931 33.106 2.04483 33.1124 2.06783 33.1244C2.09083 33.1365 2.11064 33.1537 2.12564 33.1748C2.67346 33.8654 3.24484 34.5832 3.83978 35.3285C4.43472 36.0739 5.035 36.8249 5.64062 37.5817C6.24706 38.3387 6.84857 39.0898 7.44515 39.8348C8.04173 40.5799 8.6142 41.2977 9.16258 41.9885V33.3347Z" fill="white" fill-opacity="0.5"/>
<path d="M27.5492 33.0981C27.7253 33.0981 27.8136 33.1853 27.8138 33.3598V33.7044C27.8169 33.7737 27.7933 33.8416 27.7477 33.8941C27.7206 33.92 27.6882 33.9399 27.6528 33.9523C27.6174 33.9648 27.5797 33.9697 27.5422 33.9666H21.4614V37.5925H26.3508C26.4195 37.5894 26.4872 37.6102 26.5422 37.6516C26.5913 37.6914 26.6157 37.7574 26.6153 37.8498V38.2041C26.6186 38.2394 26.614 38.2748 26.6018 38.308C26.5896 38.3411 26.5701 38.3712 26.5447 38.3957C26.5193 38.4204 26.4887 38.439 26.4551 38.4503C26.4216 38.4616 26.3859 38.4652 26.3508 38.461H21.4614V42.5527H27.6343C27.8105 42.5527 27.8986 42.6384 27.8988 42.8096V43.1709C27.8988 43.3376 27.8129 43.4209 27.6413 43.4209H20.8101C20.781 43.422 20.7519 43.4173 20.7245 43.4072C20.6973 43.397 20.6721 43.3816 20.6507 43.3619C20.6284 43.337 20.6114 43.3079 20.6008 43.2763C20.5901 43.2446 20.586 43.2113 20.5887 43.178V33.355C20.5887 33.2624 20.6117 33.1963 20.6578 33.1571C20.7107 33.1154 20.7769 33.0945 20.8443 33.0981H27.5492Z" fill="white" fill-opacity="0.5"/>
<path d="M40.9606 37.5994L43.7956 33.4176C43.8834 33.2882 43.9628 33.2045 44.0322 33.1677C44.1193 33.1268 44.215 33.1076 44.3112 33.1119H44.5757C44.7336 33.1119 44.8129 33.1443 44.8129 33.2091C44.8129 33.2602 44.7686 33.3503 44.6802 33.4803L41.4125 38.2664L44.7221 43.1361C44.7649 43.1929 44.7915 43.2601 44.7989 43.3307C44.7989 43.3954 44.745 43.4278 44.6387 43.4278H44.2763C44.1978 43.4299 44.1204 43.411 44.0517 43.3732C43.9831 43.3353 43.9259 43.28 43.8859 43.2127L40.9597 38.9264L38.0352 43.2127C37.9328 43.3561 37.8026 43.4278 37.6449 43.4278H37.2829C37.1712 43.4278 37.1156 43.3954 37.1156 43.3307C37.1156 43.2845 37.1431 43.2197 37.1978 43.1361L40.5074 38.2664L37.2397 33.4803C37.1512 33.3598 37.1072 33.2694 37.1074 33.2091C37.1074 33.1443 37.1863 33.1119 37.3442 33.1119H37.6092C37.7051 33.1077 37.8007 33.1268 37.8877 33.1677C37.9571 33.2045 38.0365 33.2882 38.1247 33.4176L40.9606 37.5994Z" fill="white" fill-opacity="0.5"/>
<path d="M55.4535 39.2833C55.45 39.7547 55.5364 40.2223 55.7083 40.6614C55.8676 41.076 56.1091 41.4543 56.4181 41.7739C56.7273 42.0936 57.0977 42.3479 57.5075 42.5218C57.9449 42.7078 58.4165 42.8011 58.8921 42.7958C59.3733 42.8018 59.8506 42.7084 60.2939 42.5218C60.7038 42.3479 61.074 42.0929 61.3819 41.772C61.6872 41.4499 61.9264 41.0713 62.0862 40.6577C62.2559 40.2194 62.341 39.7532 62.3371 39.2833V33.3481C62.3359 33.3148 62.3414 33.2817 62.3533 33.2507C62.3654 33.2197 62.3837 33.1915 62.4071 33.1677C62.4332 33.1437 62.464 33.1251 62.4975 33.113C62.5311 33.1011 62.5667 33.096 62.6023 33.0981H62.8668C62.9378 33.0954 63.0073 33.1188 63.0619 33.1641C63.0877 33.1871 63.1079 33.2157 63.1211 33.2474C63.1344 33.2793 63.1402 33.3137 63.1384 33.3481V39.3919C63.1404 39.9691 63.0242 40.5406 62.7969 41.0714C62.5841 41.569 62.2752 42.0199 61.8877 42.3984C61.5006 42.7741 61.044 43.0713 60.5434 43.2739C60.0202 43.4863 59.4602 43.5937 58.8954 43.5897C58.5141 43.591 58.1345 43.5408 57.7667 43.4405C57.4113 43.3439 57.0704 43.2002 56.7531 43.0134C56.4407 42.8288 56.1528 42.606 55.896 42.35C55.6397 42.0946 55.4172 41.8074 55.2341 41.4955C55.0487 41.1782 54.9047 40.8386 54.8056 40.4849C54.7027 40.1184 54.6511 39.7396 54.6524 39.3591V33.3481C54.652 33.2847 54.6739 33.2232 54.7144 33.1743C54.7364 33.1486 54.7641 33.1283 54.7954 33.1151C54.8265 33.1018 54.8605 33.096 54.8943 33.0981H55.1979C55.2634 33.0986 55.3263 33.1234 55.3742 33.1677C55.4002 33.19 55.4207 33.2178 55.4344 33.2489C55.4481 33.2801 55.4547 33.3139 55.4535 33.3481V39.2833Z" fill="white" fill-opacity="0.5"/>
<path d="M73.2393 41.5668C73.3322 41.4742 73.4089 41.4024 73.4694 41.3514C73.5337 41.2987 73.615 41.2712 73.6983 41.2739C73.7468 41.2729 73.7941 41.2902 73.8306 41.3223C73.8643 41.3512 73.8948 41.384 73.9213 41.4197C74.1146 41.6356 74.3306 41.83 74.5656 41.9998C74.7985 42.1679 75.0484 42.3111 75.3113 42.4271C75.57 42.5415 75.8394 42.6299 76.1158 42.691C76.3834 42.7504 76.6567 42.7806 76.9309 42.7811C77.3072 42.7812 77.6824 42.7393 78.0493 42.6561C78.4006 42.5803 78.7363 42.4452 79.042 42.2567C79.3298 42.0789 79.573 41.8377 79.7528 41.5517C79.9338 41.2646 80.0246 40.9172 80.0248 40.5095C80.0288 40.2923 79.9822 40.0773 79.8888 39.881C79.798 39.698 79.6713 39.5349 79.5161 39.4017C79.3494 39.2594 79.1642 39.1402 78.9656 39.0474C78.7501 38.9454 78.5279 38.8583 78.3004 38.7868C78.0656 38.7128 77.8253 38.6469 77.5793 38.589C77.3333 38.5311 77.0941 38.4764 76.8615 38.4251C76.3491 38.3143 75.8452 38.1681 75.3532 37.9875C74.9234 37.8253 74.5673 37.6377 74.2849 37.4247C74.0203 37.2334 73.8033 36.9839 73.651 36.6954C73.5068 36.4017 73.435 36.0777 73.4419 35.7508C73.4356 35.352 73.5228 34.9571 73.6962 34.5976C73.8658 34.2544 74.1125 33.9548 74.4172 33.7222C74.7552 33.4679 75.138 33.2795 75.5459 33.1667C76.0264 33.0315 76.5238 32.966 77.0229 32.9721C77.6123 32.9682 78.1973 33.073 78.7486 33.2808C79.2938 33.4898 79.7887 33.8108 80.2011 34.2232C80.2613 34.2835 80.3066 34.3311 80.337 34.3657C80.3647 34.3947 80.3808 34.4329 80.3823 34.473C80.3757 34.5229 80.351 34.5687 80.3128 34.6017C80.2665 34.6503 80.1968 34.7185 80.1037 34.8065C80.0625 34.8437 80.0273 34.8737 79.9993 34.897C79.9768 34.9177 79.9478 34.9301 79.9171 34.9319C79.8567 34.9319 79.7754 34.8878 79.6736 34.7996C79.5107 34.6606 79.34 34.5286 79.1611 34.4038C78.9755 34.2748 78.7785 34.1633 78.5723 34.0703C78.3454 33.9684 78.1084 33.8905 77.8652 33.8376C77.5825 33.7772 77.294 33.7481 77.0049 33.7508C76.5497 33.7508 76.1525 33.8028 75.8134 33.9069C75.5059 33.9951 75.2177 34.14 74.9637 34.3342C74.7496 34.4986 74.5764 34.7103 74.4579 34.9526C74.3395 35.1948 74.2789 35.4612 74.2808 35.7307C74.2771 35.9208 74.315 36.1091 74.3922 36.2829C74.4678 36.4445 74.5729 36.5906 74.7024 36.7136C74.8414 36.846 74.9986 36.9583 75.1692 37.047C75.3559 37.1455 75.549 37.2315 75.7472 37.3042C75.9541 37.3804 76.1713 37.4488 76.3988 37.5091C76.6265 37.5694 76.854 37.625 77.0813 37.6758C77.3509 37.7406 77.6308 37.8099 77.9211 37.8839C78.2115 37.958 78.4959 38.0447 78.7745 38.1445C79.0462 38.2412 79.3105 38.3572 79.5654 38.4919C79.8057 38.618 80.0264 38.7783 80.2204 38.9679C80.4206 39.1623 80.5782 39.3962 80.6831 39.6544C80.7881 39.9127 80.8381 40.1899 80.8301 40.4686C80.8301 40.9775 80.7278 41.4245 80.5232 41.8089C80.3218 42.1901 80.036 42.5204 79.6875 42.775C79.3123 43.0446 78.8907 43.2434 78.4438 43.3615C77.9476 43.4964 77.4353 43.5632 76.9211 43.5599C76.573 43.5602 76.2255 43.5288 75.8833 43.466C75.5485 43.4047 75.2223 43.3044 74.9111 43.1674C74.5998 43.0292 74.3063 42.8542 74.0368 42.6463C73.755 42.4279 73.5022 42.1746 73.2845 41.8925C73.2555 41.8604 73.2298 41.8256 73.2076 41.7885C73.1887 41.7545 73.1791 41.716 73.1797 41.677C73.1813 41.6555 73.1874 41.6346 73.1978 41.6156C73.208 41.5966 73.2222 41.58 73.2393 41.5668Z" fill="white" fill-opacity="0.5"/>
</svg>
